<svg width="60" height="60" viewBox="0 0 60 60" fill="none" xmlns="http://www.w3.org/2000/svg">
<path d="M30 60C46.5685 60 60 46.5685 60 30C60 13.4315 46.5685 0 30 0C13.4315 0 0 13.4315 0 30C0 46.5685 13.4315 60 30 60Z" fill="#0769AD"/>
<path d="M44.2656 24.4738C46.9592 24.4738 49.4254 23.5755 51.3321 22.0856C49.3526 24.6939 46.0729 26.3991 42.3619 26.3991C36.3165 26.3991 31.4158 21.8736 31.4158 16.2912C31.4158 13.1959 32.9224 10.4256 35.2954 8.57143C34.0502 10.2122 33.3195 12.2102 33.3195 14.3659C33.3195 19.9483 38.2202 24.4738 44.2656 24.4738Z" fill="#78CFF5"/>
<path d="M51.228 31.4113C48.324 33.6891 44.5646 35.0631 40.4582 35.0631C31.2587 35.0631 23.8009 28.1672 23.8009 19.6605C23.8009 16.3612 24.9229 13.3041 26.8331 10.7977C23.2314 13.623 20.9454 17.8389 20.9454 22.5484C20.9454 31.0551 28.4032 37.9513 37.6027 37.9513C43.2343 37.9513 48.213 35.3672 51.228 31.4113Z" fill="#78CFF5"/>
<path d="M51.4286 40.2216C47.2905 44.1705 41.5579 46.6153 35.2232 46.6153C22.6065 46.6153 12.3788 36.9178 12.3788 24.9553C12.3788 21.1646 13.4058 17.6014 15.2103 14.5022C11.1069 18.4179 8.57141 23.8125 8.57141 29.7686C8.57141 41.7311 18.7991 51.4286 31.4158 51.4286C40.0343 51.4286 47.5384 46.9031 51.4286 40.2216Z" fill="#78CFF5"/>
</svg>
