<svg width="60" height="60" viewBox="0 0 60 60" fill="none" xmlns="http://www.w3.org/2000/svg">
<path d="M0 0H60V60H0V0Z" fill="#F7DF1E"/>
<path d="M15.7762 50.1404L20.3678 47.3616C21.2536 48.9322 22.0595 50.261 23.9923 50.261C25.8451 50.261 27.0132 49.5363 27.0132 46.7172V27.5458H32.6516V46.797C32.6516 52.637 29.2284 55.2951 24.234 55.2951C19.7235 55.2951 17.1052 52.959 15.7761 50.1399" fill="black"/>
<path d="M35.7143 49.5362L40.3053 46.878C41.5139 48.8517 43.0847 50.3015 45.8635 50.3015C48.1998 50.3015 49.6896 49.1334 49.6896 47.5224C49.6896 45.5891 48.1592 44.9044 45.5815 43.7771L44.1723 43.1725C40.1042 41.441 37.4056 39.2661 37.4056 34.6746C37.4056 30.4456 40.6276 27.2234 45.6623 27.2234C49.2469 27.2234 51.8245 28.4721 53.677 31.7345L49.2869 34.5536C48.3202 32.8219 47.2733 32.1373 45.6624 32.1373C44.0111 32.1373 42.9638 33.1845 42.9638 34.5536C42.9638 36.2452 44.0111 36.9301 46.4273 37.9773L47.8369 38.5814C52.6297 40.6356 55.3283 42.7297 55.3283 47.4418C55.3283 52.5169 51.3411 55.2956 45.9845 55.2956C40.7487 55.2956 37.3653 52.7987 35.7143 49.5362Z" fill="black"/>
</svg>
