<svg width="60" height="60" viewBox="0 0 60 60" fill="none" xmlns="http://www.w3.org/2000/svg">
<path d="M2.50073 2.56483H57.4993V57.4352H2.50073V2.56483Z" fill="#0C0824"/>
<path d="M2.50071 2.56484H57.4993V57.4352H2.50071V2.56484ZM0 60H60V0H0V60ZM40.4507 24.6154C38.475 24.6154 37.8 25.6418 37.8 26.4879C37.8 27.411 38.25 28.0528 40.9007 29.4615C44.8264 31.411 46.0436 33.2813 46.0436 36.0264C46.0436 40.1297 42.9943 42.3341 38.8693 42.3341C37.099 42.4013 35.3394 42.0241 33.7436 41.2352C33.5679 41.1582 33.5443 41.0308 33.5443 40.8242V37.0506C33.5443 36.7934 33.6686 36.7165 33.8443 36.8462C35.343 37.8346 37.0875 38.3595 38.8693 38.3582C40.845 38.3582 41.67 37.5121 41.67 36.3582C41.67 35.4352 41.0957 34.6154 38.5693 33.2813C35.0186 31.5385 33.5443 29.7648 33.5443 26.8198C33.5443 23.5121 36.0686 20.7692 40.4443 20.7692C41.9674 20.7022 43.4884 20.9464 44.9186 21.4879C45.0009 21.5427 45.0676 21.6191 45.1116 21.7091C45.1557 21.7991 45.1756 21.8995 45.1693 22V25.5165C45.1693 25.7209 45.045 25.8505 44.7943 25.7736C43.4725 24.9932 41.9693 24.5945 40.4443 24.6198L40.4507 24.6154ZM18.9493 27.6659C19.5236 27.7165 19.9736 27.7165 20.9743 27.7165C23.8993 27.7165 26.6486 26.6659 26.6486 22.589C26.6486 19.3319 24.6729 17.6923 21.3493 17.6923C20.3486 17.6923 19.3993 17.7429 18.9493 17.7692V27.6659ZM14.4986 14.0396C14.4986 13.8593 14.8479 13.7319 15.0493 13.7319C16.65 13.6549 19.0243 13.6044 21.4993 13.6044C28.425 13.6044 31.125 17.5011 31.125 22.4769C31.125 28.989 26.5243 31.7846 20.8757 31.7846C19.9264 31.7846 19.6007 31.7341 18.9257 31.7341V41.5802C18.9257 41.7846 18.8507 41.8879 18.6257 41.8879H14.8007C14.6014 41.8879 14.5007 41.811 14.5007 41.5802V14.0506L14.4986 14.0396Z" fill="#31C5F0"/>
</svg>
