<svg width="73" height="60" viewBox="0 0 73 60" fill="none" xmlns="http://www.w3.org/2000/svg">
<path d="M62.1778 34.3271C59.6586 34.3417 57.4692 35.0107 55.6359 35.9997C54.9633 34.5307 54.2906 33.2218 54.1719 32.2619C54.04 31.142 53.8817 30.4585 54.04 29.1205C54.1983 27.7824 54.9105 25.8772 54.8973 25.7318C54.8841 25.5863 54.739 24.9028 53.2882 24.8882C51.8374 24.8737 50.5844 25.1936 50.4393 25.6154C50.2943 26.0372 50.0173 26.9971 49.8326 27.986C49.582 29.4404 46.931 34.6326 45.4142 37.3522C44.9262 36.2905 44.5041 35.3597 44.4118 34.618C44.2799 33.4981 44.1217 32.8146 44.2799 31.4766C44.4382 30.1385 45.1504 28.2333 45.1372 28.0879C45.124 27.9424 44.979 27.2589 43.5281 27.2443C42.0773 27.2298 40.8243 27.5497 40.6793 27.9715C40.5342 28.3933 40.3759 29.3823 40.0725 30.3421C39.7692 31.302 36.2476 39.9701 35.3244 42.2099C34.8496 43.3588 34.4407 44.2751 34.1505 44.9005C34.1505 44.9005 34.1374 44.9441 34.0978 45.0168C33.8472 45.5549 33.7021 45.8458 33.7021 45.8458C33.7021 45.8458 33.7021 45.8458 33.7021 45.8603C33.5043 46.253 33.2932 46.6166 33.1877 46.6166C33.1086 46.6166 32.9635 45.5695 33.2141 44.1442C33.7417 41.1336 34.9947 36.4505 34.9815 36.2905C34.9815 36.2033 35.2189 35.3888 34.1637 34.9671C33.135 34.5453 32.7657 35.2434 32.6733 35.2434C32.581 35.2434 32.5151 35.4906 32.5151 35.4906C32.5151 35.4906 33.6625 30.2258 30.3257 30.2258C28.2417 30.2258 25.3665 32.7419 23.942 35.0107C23.0452 35.5488 21.1327 36.6978 19.0884 37.934C18.3102 38.4139 17.5057 38.8939 16.7539 39.3447C16.7011 39.2866 16.6484 39.2138 16.5956 39.1557C12.5597 34.3999 5.09453 31.0402 5.41107 24.6555C5.52977 22.3285 6.25518 16.2201 19.7478 8.80282C30.8532 2.76715 39.6901 4.43969 41.22 8.14835C43.4094 13.4423 36.4851 23.2739 25.0104 24.6992C20.6315 25.2373 18.3366 23.3757 17.7563 22.6776C17.1495 21.9504 17.0572 21.9068 16.833 22.0522C16.4637 22.2703 16.7011 22.9248 16.833 23.303C17.1759 24.2919 18.5872 26.0372 20.9744 26.8953C23.0847 27.6515 28.2154 28.0733 34.4275 25.4263C41.3783 22.4594 46.8123 14.2131 45.2164 7.30481C43.6205 0.294712 33.069 -2.01775 23.0847 1.89453C17.1495 4.22153 10.7132 7.88656 6.08372 12.6569C0.583787 18.329 -0.286706 23.2593 0.0694046 25.3245C1.34877 32.6546 10.5153 37.425 14.182 40.9591C13.9973 41.0754 13.8258 41.1772 13.6808 41.2645C11.8474 42.268 4.85712 46.2967 3.11613 50.558C1.13774 55.3865 3.43268 58.8479 4.94944 59.3133C9.65802 60.7532 14.4985 58.1644 17.0968 53.8885C19.6951 49.6126 19.3785 44.0569 18.1783 41.5118C18.1651 41.4827 18.1519 41.4536 18.1256 41.4245C18.6004 41.1191 19.0884 40.7991 19.5632 40.4937C20.4996 39.8829 21.4229 39.3156 22.2142 38.8502C21.7658 40.2028 21.4361 41.8172 21.2778 44.1442C21.08 46.8784 22.0955 50.4271 23.4276 51.8233C24.0212 52.4341 24.7202 52.4487 25.1686 52.4487C26.725 52.4487 27.424 51.0234 28.2022 49.3363C29.1518 47.2711 30.0091 44.8714 30.0091 44.8714C30.0091 44.8714 28.9408 51.3579 31.8424 51.3579C32.8976 51.3579 33.9659 49.8453 34.4407 49.0745V49.0891C34.4407 49.0891 34.4671 49.0454 34.5198 48.9436C34.6254 48.7546 34.6913 48.6382 34.6913 48.6382V48.6091C35.1134 47.7947 36.063 45.9476 37.4743 42.8789C39.2944 38.923 41.0486 33.9781 41.0486 33.9781C41.0486 33.9781 41.2068 35.1852 41.7476 37.1923C42.0641 38.3703 42.7236 39.6647 43.2512 40.9155C42.8291 41.5699 42.5653 41.9335 42.5653 41.9335C42.5653 41.9335 42.5653 41.9335 42.5785 41.9481C42.2356 42.4426 41.8663 42.9807 41.4574 43.5043C40.0198 45.3949 38.3052 47.562 38.0678 48.1873C37.7908 48.9291 37.8567 49.4672 38.3843 49.9035C38.7668 50.2235 39.4526 50.2671 40.1517 50.2235C41.4442 50.1217 42.3543 49.7726 42.8027 49.5545C43.5018 49.2781 44.3195 48.8564 45.0845 48.231C46.4957 47.082 47.353 45.4386 47.2739 43.2715C47.2343 42.079 46.8782 40.8864 46.443 39.7665C46.5749 39.5629 46.6936 39.3593 46.8255 39.1557C49.0545 35.5634 50.7823 31.622 50.7823 31.622C50.7823 31.622 50.9405 32.8291 51.4813 34.8362C51.7451 35.8542 52.2858 36.9596 52.7606 38.0358C50.6635 39.9119 49.371 42.0935 48.9094 43.5188C48.0784 46.1658 48.7247 47.3583 49.9513 47.6347C50.5053 47.7656 51.2966 47.4747 51.877 47.1984C52.6156 46.9366 53.4861 46.4857 54.317 45.8167C55.7282 44.6678 57.0867 43.0679 57.0076 40.9009C56.968 39.9119 56.7306 38.9375 56.4009 37.9922C58.1814 37.1777 60.4764 36.7269 63.4044 37.105C69.6825 37.9194 70.9223 42.2389 70.6849 44.0569C70.4475 45.8749 69.1286 46.8639 68.6933 47.1693C68.2581 47.4747 68.113 47.5765 68.1526 47.7947C68.2053 48.1146 68.4163 48.1001 68.7856 48.0419C69.3 47.9401 72.083 46.573 72.2017 43.2279C72.3995 38.952 68.7065 34.2835 62.1778 34.3271ZM13.7467 52.3323C11.6628 54.8338 8.76115 55.7792 7.50817 54.9793C6.16286 54.1212 6.69043 50.4271 9.24916 47.7801C10.8055 46.1658 12.8103 44.6678 14.1424 43.7515C14.4457 43.5479 14.8942 43.257 15.4349 42.8934C15.5273 42.8352 15.58 42.8061 15.58 42.8061C15.6855 42.7334 15.791 42.6607 15.8966 42.588C16.833 46.3694 15.9361 49.6999 13.7467 52.3323ZM28.9144 40.9591C28.189 42.908 26.6722 47.8965 25.749 47.6201C24.9576 47.3874 24.4696 43.6061 25.5907 39.8683C26.1578 37.9922 27.3581 35.7524 28.0571 34.8798C29.1914 33.4836 30.4444 33.0182 30.7477 33.5854C31.1302 34.3271 29.3628 39.7374 28.9144 40.9591ZM41.431 47.562C41.1277 47.7365 40.8375 47.8528 40.7056 47.7656C40.6133 47.7074 40.8375 47.4747 40.8375 47.4747C40.8375 47.4747 42.4071 45.6131 43.0269 44.7696C43.3831 44.2751 43.8051 43.6933 44.2536 43.0389V43.2279C44.2536 45.4531 42.3015 46.9511 41.431 47.562ZM51.0856 45.1332C50.8614 44.9586 50.901 44.3769 51.6527 42.5589C51.9429 41.8463 52.6288 40.6537 53.8026 39.5047C53.9345 39.9701 54.0268 40.421 54.0136 40.8427C54.0004 43.6497 52.1803 44.6968 51.0856 45.1332Z" fill="#CD6799"/>
</svg>
