<svg width="40" height="40" viewBox="0 0 40 40" fill="none" xmlns="http://www.w3.org/2000/svg">
<path d="M36.7178 5C38.52 5 39.9947 6.52866 39.9947 8.39692V9.38168L35.442 12.7529L19.9427 23.8207L4.44346 12.6406V35H3.27689C1.47466 35 0 33.4714 0 31.6031V8.39786C0 6.52956 1.47466 5.00091 3.27689 5.00091L19.9427 17.8101L36.7169 5.00091L36.7178 5Z" fill="#E75A4D"/>
<path d="M3.27689 5L19.9427 17.8091L36.7178 5H3.27689Z" fill="url(#paint0_linear_3_32)"/>
<path d="M4.44345 12.6406V35H35.4429V12.7528L19.9427 23.8207L4.44345 12.6406Z" fill="#E7E4D7"/>
<path d="M4.44345 35L19.9427 23.8207L19.8726 23.7693L4.44345 34.7543V35Z" fill="#B8B7AE"/>
<path d="M35.4429 12.7529L35.4518 35L19.9427 23.8208L35.4429 12.7529Z" fill="#B7B6AD"/>
<path d="M39.9947 9.38168L40 31.6058C39.9219 34.076 38.8894 34.9577 35.4518 34.9991L35.4429 12.7519L39.9955 9.38077L39.9947 9.38168Z" fill="#B2392F"/>
<path d="M3.27689 5L19.9427 17.8091L36.7178 5H3.27689Z" fill="url(#paint1_linear_3_32)"/>
<path d="M3.27689 5L19.9427 17.8091L36.7178 5H3.27689Z" fill="url(#paint2_linear_3_32)"/>
<path d="M3.27689 5L19.9427 17.8091L36.7178 5H3.27689Z" fill="url(#paint3_linear_3_32)"/>
<path d="M3.27689 5L19.9427 17.8091L36.7178 5H3.27689Z" fill="url(#paint4_linear_3_32)"/>
<path d="M3.27689 5L19.9427 17.8091L36.7178 5H3.27689Z" fill="url(#paint5_linear_3_32)"/>
<path d="M3.27689 5L19.9427 17.8091L36.7178 5H3.27689Z" fill="url(#paint6_linear_3_32)"/>
<path d="M3.27689 5L19.9427 17.8091L36.7178 5H3.27689Z" fill="url(#paint7_linear_3_32)"/>
<path d="M3.27689 5L19.9427 17.8091L36.7178 5H3.27689Z" fill="#F7F5ED"/>
<defs>
<linearGradient id="paint0_linear_3_32" x1="9.29362" y1="11.4057" x2="30.6604" y2="11.4057" gradientUnits="userSpaceOnUse">
<stop stop-color="#F8F6EF"/>
<stop offset="1" stop-color="#E7E4D6"/>
</linearGradient>
<linearGradient id="paint1_linear_3_32" x1="9.29362" y1="11.4057" x2="30.6604" y2="11.4057" gradientUnits="userSpaceOnUse">
<stop stop-color="#F8F6EF"/>
<stop offset="1" stop-color="#E7E4D6"/>
</linearGradient>
<linearGradient id="paint2_linear_3_32" x1="9.29362" y1="11.4057" x2="30.6604" y2="11.4057" gradientUnits="userSpaceOnUse">
<stop stop-color="#F8F6EF"/>
<stop offset="1" stop-color="#E7E4D6"/>
</linearGradient>
<linearGradient id="paint3_linear_3_32" x1="9.29362" y1="11.4057" x2="30.6604" y2="11.4057" gradientUnits="userSpaceOnUse">
<stop stop-color="#F8F6EF"/>
<stop offset="1" stop-color="#E7E4D6"/>
</linearGradient>
<linearGradient id="paint4_linear_3_32" x1="9.29362" y1="11.4057" x2="30.6604" y2="11.4057" gradientUnits="userSpaceOnUse">
<stop stop-color="#F8F6EF"/>
<stop offset="1" stop-color="#E7E4D6"/>
</linearGradient>
<linearGradient id="paint5_linear_3_32" x1="9.29362" y1="11.4057" x2="30.6604" y2="11.4057" gradientUnits="userSpaceOnUse">
<stop stop-color="#F8F6EF"/>
<stop offset="1" stop-color="#E7E4D6"/>
</linearGradient>
<linearGradient id="paint6_linear_3_32" x1="9.29362" y1="11.4057" x2="30.6604" y2="11.4057" gradientUnits="userSpaceOnUse">
<stop stop-color="#F8F6EF"/>
<stop offset="1" stop-color="#E7E4D6"/>
</linearGradient>
<linearGradient id="paint7_linear_3_32" x1="9.29362" y1="11.4057" x2="30.6604" y2="11.4057" gradientUnits="userSpaceOnUse">
<stop stop-color="#F8F6EF"/>
<stop offset="1" stop-color="#E7E4D6"/>
</linearGradient>
</defs>
</svg>
