<svg width="40" height="40" viewBox="0 0 40 40" fill="none" xmlns="http://www.w3.org/2000/svg">
<path d="M31.4286 0H8.57143C3.83756 0 0 3.83756 0 8.57143V31.4286C0 36.1624 3.83756 40 8.57143 40H31.4286C36.1624 40 40 36.1624 40 31.4286V8.57143C40 3.83756 36.1624 0 31.4286 0Z" fill="url(#paint0_radial_3_32)"/>
<path d="M31.4286 0H8.57143C3.83756 0 0 3.83756 0 8.57143V31.4286C0 36.1624 3.83756 40 8.57143 40H31.4286C36.1624 40 40 36.1624 40 31.4286V8.57143C40 3.83756 36.1624 0 31.4286 0Z" fill="url(#paint1_radial_3_32)"/>
<path d="M31.4286 0H8.57143C3.83756 0 0 3.83756 0 8.57143V31.4286C0 36.1624 3.83756 40 8.57143 40H31.4286C36.1624 40 40 36.1624 40 31.4286V8.57143C40 3.83756 36.1624 0 31.4286 0Z" fill="url(#paint2_radial_3_32)"/>
<path d="M30 12.1429C30 13.3263 29.0406 14.2857 27.8571 14.2857C26.6737 14.2857 25.7143 13.3263 25.7143 12.1429C25.7143 10.9594 26.6737 10 27.8571 10C29.0406 10 30 10.9594 30 12.1429Z" fill="white"/>
<path fill-rule="evenodd" clip-rule="evenodd" d="M20 27.1428C23.9448 27.1428 27.1428 23.9448 27.1428 20C27.1428 16.0551 23.9448 12.8571 20 12.8571C16.0551 12.8571 12.8571 16.0551 12.8571 20C12.8571 23.9448 16.0551 27.1428 20 27.1428ZM20 24.2857C22.367 24.2857 24.2857 22.367 24.2857 20C24.2857 17.633 22.367 15.7143 20 15.7143C17.633 15.7143 15.7143 17.633 15.7143 20C15.7143 22.367 17.633 24.2857 20 24.2857Z" fill="white"/>
<path fill-rule="evenodd" clip-rule="evenodd" d="M5.71428 19.4286C5.71428 14.6281 5.71428 12.2279 6.64851 10.3944C7.47028 8.78154 8.78154 7.47028 10.3944 6.64851C12.2279 5.71428 14.6281 5.71428 19.4286 5.71428H20.5714C25.3719 5.71428 27.7721 5.71428 29.6056 6.64851C31.2184 7.47028 32.5297 8.78154 33.3514 10.3944C34.2857 12.2279 34.2857 14.6281 34.2857 19.4286V20.5714C34.2857 25.3718 34.2857 27.7721 33.3514 29.6056C32.5297 31.2184 31.2184 32.5297 29.6056 33.3514C27.7721 34.2857 25.3719 34.2857 20.5714 34.2857H19.4286C14.6281 34.2857 12.2279 34.2857 10.3944 33.3514C8.78154 32.5297 7.47028 31.2184 6.64851 29.6056C5.71428 27.7721 5.71428 25.3718 5.71428 20.5714V19.4286ZM19.4286 8.57142H20.5714C23.0189 8.57142 24.6824 8.57365 25.9684 8.67871C27.2211 8.78105 27.8617 8.96655 28.3086 9.19424C29.3837 9.74209 30.2578 10.6163 30.8057 11.6914C31.0334 12.1383 31.219 12.7788 31.3213 14.0316C31.4263 15.3176 31.4286 16.9811 31.4286 19.4286V20.5714C31.4286 23.0188 31.4263 24.6824 31.3213 25.9684C31.219 27.2211 31.0334 27.8617 30.8057 28.3086C30.2578 29.3837 29.3837 30.2578 28.3086 30.8057C27.8617 31.0334 27.2211 31.219 25.9684 31.3213C24.6824 31.4263 23.0189 31.4286 20.5714 31.4286H19.4286C16.9811 31.4286 15.3176 31.4263 14.0316 31.3213C12.7789 31.219 12.1383 31.0334 11.6914 30.8057C10.6163 30.2578 9.74209 29.3837 9.19424 28.3086C8.96655 27.8617 8.78105 27.2211 8.67871 25.9684C8.57365 24.6824 8.57142 23.0188 8.57142 20.5714V19.4286C8.57142 16.9811 8.57365 15.3176 8.67871 14.0316C8.78105 12.7788 8.96655 12.1383 9.19424 11.6914C9.74209 10.6163 10.6163 9.74209 11.6914 9.19424C12.1383 8.96655 12.7789 8.78105 14.0316 8.67871C15.3176 8.57365 16.9811 8.57142 19.4286 8.57142Z" fill="white"/>
<defs>
<radialGradient id="paint0_radial_3_32" cx="0" cy="0" r="1" gradientUnits="userSpaceOnUse" gradientTransform="translate(14.2857 30) rotate(-55.3758) scale(36.4566)">
<stop stop-color="#B13589"/>
<stop offset="0.79309" stop-color="#C62F94"/>
<stop offset="1" stop-color="#8A3AC8"/>
</radialGradient>
<radialGradient id="paint1_radial_3_32" cx="0" cy="0" r="1" gradientUnits="userSpaceOnUse" gradientTransform="translate(12.8571 41.4286) rotate(-65.1363) scale(32.2774)">
<stop stop-color="#E0E8B7"/>
<stop offset="0.444662" stop-color="#FB8A2E"/>
<stop offset="0.71474" stop-color="#E2425C"/>
<stop offset="1" stop-color="#E2425C" stop-opacity="0"/>
</radialGradient>
<radialGradient id="paint2_radial_3_32" cx="0" cy="0" r="1" gradientUnits="userSpaceOnUse" gradientTransform="translate(-2.14286 1.42857) rotate(-8.1301) scale(55.5584 11.8834)">
<stop offset="0.156701" stop-color="#406ADC"/>
<stop offset="0.467799" stop-color="#6A45BE"/>
<stop offset="1" stop-color="#6A45BE" stop-opacity="0"/>
</radialGradient>
</defs>
</svg>
