<svg width="40" height="40" viewBox="0 0 40 40" fill="none" xmlns="http://www.w3.org/2000/svg">
<path fill-rule="evenodd" clip-rule="evenodd" d="M34.0862 34.0838H28.1537V24.8012C28.1537 22.5875 28.1162 19.74 25.0712 19.74C21.985 19.74 21.5137 22.1525 21.5137 24.6425V34.0838H15.5875V14.995H21.275V17.605H21.3562C22.1475 16.1037 24.0825 14.5213 26.9687 14.5213C32.9762 14.5213 34.0862 18.4737 34.0862 23.615V34.0838ZM8.89875 12.3875C6.9925 12.3875 5.45625 10.8462 5.45625 8.94625C5.45625 7.0475 6.9925 5.50625 8.89875 5.50625C10.7962 5.50625 12.3375 7.0475 12.3375 8.94625C12.3375 10.8462 10.7962 12.3875 8.89875 12.3875ZM11.8662 34.0838H5.9275V14.995H11.8662V34.0838ZM38.3337 0H1.6675C0.74625 0 0 0.74625 0 1.66625V38.3325C0 39.2537 0.74625 40 1.6675 40H38.3337C39.2537 40 40 39.2537 40 38.3325V1.66625C40 0.74625 39.2537 0 38.3337 0Z" fill="#0077B5"/>
</svg>
